Coordinates
version=1
nRows=25
nColumns=28
inDegrees=yes

Units are S.I. units (second, meters, Newtons, ...)
Angles are in degrees.

endheader
time	pelvis_tilt	pelvis_list	pelvis_rotation	pelvis_tx	pelvis_ty	pelvis_tz	hip_flexion_r	hip_adduction_r	hip_rotation_r	knee_angle_r	ankle_angle_r	subtalar_angle_r	mtp_angle_r	hip_flexion_l	hip_adduction_l	hip_rotation_l	knee_angle_l	socket_flexion	socket_adduction	socket_rotation	socket_tx	socket_ty	socket_tz	foot_flex	lumbar_extension	lumbar_bending	lumbar_rotation
      0.00000000	      1.51986564	     -6.23898948	     -7.66229551	     -0.86630937	      0.99478486	      0.29267249	    -27.28358651	      7.54182942	      2.79937711	     -3.25649868	      6.42224912	     -8.32701145	      8.43488613	     24.87021633	     -9.22952181	      2.45685209	     -3.65386872	      1.89175118	     -1.22908490	      6.48908291	      0.00000000	     -0.00282121	      0.00000000	     -0.51033829	    -13.07499305	      3.77233333	     10.40556007
      0.00416667	      1.45998690	     -6.25455512	     -7.68364897	     -0.86070950	      0.99414769	      0.29232477	    -27.28986204	      7.50467319	      2.84345538	     -3.66774718	      6.08631354	     -8.31704968	      8.50405460	     24.60994444	     -9.19483946	      2.40022852	     -3.53675849	      1.92327522	     -1.23044418	      6.56856806	      0.00000000	     -0.00313219	      0.00000000	     -0.84305420	    -12.96212352	      3.76828208	     10.37178888
      0.00833333	      1.56701780	     -6.16530276	     -8.00652795	     -0.85451900	      0.99392598	      0.29245189	    -27.40940854	      7.19552949	      2.88080342	     -4.21966377	      5.67740292	     -8.37546727	     10.00707967	     23.77577960	     -9.17472467	      1.69011261	     -2.68144701	      2.35250100	     -1.22940856	      6.88761637	      0.00000000	     -0.00353287	      0.00000000	     -1.08185526	    -12.97797943	      3.56216401	     10.76395939
      0.01250000	      1.54301515	     -6.24058305	     -7.94853123	     -0.84841085	      0.99323162	      0.29191000	    -27.42771037	      7.23838803	      2.75315415	     -4.73436136	      5.46739368	     -8.47906562	     10.06980533	     23.50367980	     -9.14874268	      1.68915327	     -2.68050354	      2.30429602	     -1.26316203	      6.99660394	      0.00000000	     -0.00405601	      0.00000000	     -1.41765589	    -12.89065705	      3.64795913	     10.73367209
      0.01666667	      1.48598195	     -6.27451974	     -7.85320151	     -0.84196017	      0.99247433	      0.29132589	    -27.52534346	      7.26587885	      2.81259314	     -5.05998273	      5.38680899	     -8.49414458	     10.08006901	     23.26862006	     -9.06282248	      1.71618348	     -2.71688807	      2.26424969	     -1.30239787	      7.05654051	      0.00000000	     -0.00453761	      0.00000000	     -1.53394845	    -12.69432597	      3.68791610	     10.72927972
      0.02083333	      1.46173510	     -6.38360883	     -7.89038409	     -0.83580752	      0.99191692	      0.29083643	    -27.35600372	      7.29867247	      2.58554879	     -5.95423233	      5.06062585	     -8.68829118	     10.12964276	     22.94054584	     -9.11291369	      1.57816483	     -2.62719338	      2.24275860	     -1.33054898	      7.31069495	      0.00000000	     -0.00508140	      0.00000000	     -2.12333326	    -12.68577967	      3.80766059	     10.69575735
      0.02500000	      1.41464052	     -6.45102542	     -7.89377547	     -0.82932336	      0.99129262	      0.29035121	    -27.27569392	      7.30933337	      2.51301405	     -6.64712050	      4.85008893	     -8.80156053	     10.21620965	     22.63634220	     -9.10785351	      1.44410558	     -2.57773824	      2.24394617	     -1.36528996	      7.53634152	      0.00000000	     -0.00565792	      0.00000000	     -2.40711003	    -12.57524495	      3.87465453	     10.69406420
      0.02916667	      1.36413461	     -6.51018154	     -7.92610616	     -0.82271085	      0.99068909	      0.28987843	    -27.17122947	      7.29347765	      2.43120002	     -7.37912207	      4.60721280	     -8.91663279	     10.31404955	     22.31903118	     -9.10776103	      1.27551403	     -2.52159799	      2.25224007	     -1.39947050	      7.78440748	      0.00000000	     -0.00634493	      0.00000000	     -2.75331842	    -12.44108145	      3.93567222	     10.70517408
      0.03333333	      1.60934711	     -6.26020096	     -8.24121995	     -0.81551030	      0.99062444	      0.28984078	    -27.28453873	      6.74026676	      1.99865951	     -8.17731342	      3.68309963	     -8.84652193	     14.23606317	     21.62425318	     -8.87174621	     -0.36233265	     -2.70306617	      1.98864404	     -1.54629265	      9.04244107	      0.00000000	     -0.00699604	      0.00000000	     -3.00989921	    -12.53347300	      3.52202946	     11.14469981
      0.03750000	      1.55471369	     -6.30587842	     -8.20648312	     -0.80882564	      0.99006873	      0.28930697	    -27.17576752	      6.74881726	      1.97981636	     -8.89728338	      3.39880304	     -8.94828163	     14.19841129	     21.34012162	     -8.83065677	     -0.37845201	     -2.69553011	      1.97988214	     -1.56868156	      9.17421118	      0.00000000	     -0.00770494	      0.00000000	     -3.35274843	    -12.40063841	      3.55963562	     11.08468560
      0.04166667	      1.45659355	     -6.33407442	     -8.26543683	     -0.80198355	      0.98953015	      0.28886124	    -26.92973240	      6.69473984	      1.86825866	     -9.79480746	      3.07277756	     -9.16912528	     14.21774538	     21.03694103	     -8.81023907	     -0.57922497	     -2.60054491	      2.03618545	     -1.59257060	      9.39681808	      0.00000000	     -0.00847226	      0.00000000	     -3.58415225	    -12.18961680	      3.60539846	     11.05582857
      0.04583333	      1.39823656	     -6.33245967	     -8.28003847	     -0.79515470	      0.98908217	      0.28839541	    -26.74625014	      6.63006427	      1.79963108	    -10.63018045	      2.71712660	     -9.33518239	     14.22759012	     20.72543925	     -8.74171155	     -0.71080229	     -2.56433523	      2.05575186	     -1.60920708	      9.57805713	      0.00000000	     -0.00925611	      0.00000000	     -3.89849010	    -12.01653098	      3.59656259	     11.03844262
      0.05000000	      1.33760026	     -6.30436337	     -8.30688079	     -0.78831166	      0.98870631	      0.28795462	    -26.52020615	      6.53334053	      1.72625214	    -11.51433035	      2.32987603	     -9.52746395	     14.26392252	     20.41339304	     -8.65728166	     -0.86915351	     -2.52959327	      2.09666452	     -1.63430254	      9.78652770	      0.00000000	     -0.01001436	      0.00000000	     -4.14277383	    -11.84700782	      3.54477201	     11.02354865
      0.05416667	      1.24910602	     -6.20791226	     -8.36249076	     -0.78137599	      0.98840106	      0.28757291	    -26.21964969	      6.36596420	      1.63168988	    -12.46268671	      1.88118019	     -9.78857895	     14.41801762	     20.11226436	     -8.50879958	     -1.17571790	     -2.46469719	      2.16926090	     -1.67371468	     10.04713514	      0.00000000	     -0.01068397	      0.00000000	     -4.35895743	    -11.61438370	      3.40208458	     11.03751271
      0.05833333	      1.23968157	     -6.16175704	     -8.28590102	     -0.77467721	      0.98820484	      0.28707251	    -26.05415560	      6.31083482	      1.67884527	    -13.30792170	      1.47122128	     -9.88288172	     14.41648813	     19.81883489	     -8.37931791	     -1.17349199	     -2.51623102	      2.18086313	     -1.65626680	     10.20804391	      0.00000000	     -0.01138980	      0.00000000	     -4.63927634	    -11.52507551	      3.31790540	     10.99239976
      0.06250000	      1.26231787	     -5.85585886	     -8.52890504	     -0.76745608	      0.98826250	      0.28697721	    -25.74786706	      5.79633892	      1.39010921	    -14.38224302	      0.50474958	    -10.28462149	     16.38242762	     19.39902090	     -8.06949521	     -2.24693233	     -2.65309561	      2.08075317	     -1.73392739	     10.89140733	      0.00000000	     -0.01199628	      0.00000000	     -4.81755103	    -11.33307570	      2.90343632	     11.18552899
      0.06666667	      1.29008123	     -5.77745700	     -8.45876366	     -0.76079949	      0.98824056	      0.28643354	    -25.48042326	      5.67924409	      1.23842890	    -15.42990224	     -0.05033117	    -10.47730880	     16.34184622	     19.09209747	     -7.89871782	     -2.23106512	     -2.76376501	      2.10811006	     -1.73020900	     10.94097953	      0.00000000	     -0.01269804	      0.00000000	     -4.98938304	    -11.27594839	      2.78889282	     11.05080811
      0.07083333	      1.31092014	     -5.69101920	     -8.33704741	     -0.75415976	      0.98831016	      0.28589895	    -25.25957693	      5.60581163	      1.27877762	    -16.36395844	     -0.52162542	    -10.57965396	     16.29352495	     18.80290629	     -7.72065253	     -2.15238345	     -2.86949697	      2.14897793	     -1.71828397	     11.06792255	      0.00000000	     -0.01331101	      0.00000000	     -5.14845904	    -11.20004931	      2.62950128	     10.95443888
      0.07500000	      1.33393334	     -5.52794501	     -8.35104511	     -0.74757254	      0.98846130	      0.28545451	    -24.81788402	      5.34948167	      0.97360333	    -17.66315153	     -1.26875700	    -10.88157475	     16.21249956	     18.49645631	     -7.48532080	     -2.29051239	     -2.99075222	      2.19874373	     -1.70412749	     11.02811082	      0.00000000	     -0.01390533	      0.00000000	     -5.28940173	    -11.13499920	      2.44105638	     10.79287046
      0.07916667	      1.19854703	     -5.07182738	     -8.25418789	     -0.74047813	      0.98843834	      0.28510568	    -24.24990206	      4.88719905	      0.50515954	    -18.84017786	     -2.02095761	    -11.32948443	     16.47652713	     18.37169670	     -6.94536573	     -2.54284040	     -3.08432146	      2.27147406	     -1.70638561	     11.19411966	      0.00000000	     -0.01411628	      0.00000000	     -5.37175060	    -10.73586897	      1.87947200	     10.58734140
      0.08333333	      1.26343312	     -4.95735856	     -8.22988004	     -0.73404056	      0.98879467	      0.28460614	    -23.84799559	      4.69834692	      0.38406493	    -20.10863584	     -2.75175468	    -11.46071549	     16.48098971	     18.05887530	     -6.76129444	     -2.58414542	     -3.27434056	      2.29910316	     -1.68250220	     11.20785451	      0.00000000	     -0.01467268	      0.00000000	     -5.46639803	    -10.74486012	      1.73457193	     10.44740223
      0.08750000	      1.32275134	     -4.80845039	     -8.07420183	     -0.72764197	      0.98917931	      0.28415007	    -23.50490124	      4.58935396	      0.40922939	    -21.23526797	     -3.35661259	    -11.55877418	     16.45087471	     17.78754753	     -6.53197060	     -2.51841137	     -3.44582889	      2.37545361	     -1.62541332	     11.33902351	      0.00000000	     -0.01511113	      0.00000000	     -5.53066752	    -10.73800449	      1.47834449	     10.33801092
      0.09166667	      1.14535583	     -4.14545799	     -7.96308788	     -0.72063158	      0.98915304	      0.28345221	    -22.60250829	      3.76616348	     -0.70995657	    -22.79635500	     -4.77434131	    -11.75769444	     19.26943813	     18.02818592	     -5.76385658	     -3.22645989	     -4.38971718	      1.95046661	     -1.79707166	     11.76257107	      0.00000000	     -0.01502229	      0.00000000	     -5.55640404	    -10.28541248	      0.76428328	     10.00440618
      0.09583333	      1.25112180	     -3.97620124	     -7.91501122	     -0.71435217	      0.98968579	      0.28302326	    -22.12357207	      3.52420188	     -0.86034942	    -24.20563006	     -5.61227200	    -11.98168855	     19.11882989	     17.68698215	     -5.53047007	     -3.25861861	     -4.56464110	      2.01156620	     -1.72675536	     11.73394203	      0.00000000	     -0.01543899	      0.00000000	     -5.60382082	    -10.34594276	      0.52556179	      9.84319930
      0.10000000	      1.31341000	     -3.67847318	     -7.82892305	     -0.70797676	      0.99021201	      0.28256759	    -21.56214463	      3.16245267	     -1.12644380	    -25.64418274	     -6.51885743	    -12.28543352	     18.96022071	     17.41324292	     -5.15531773	     -3.32883829	     -4.75260417	      2.08773595	     -1.67098607	     11.71316171	      0.00000000	     -0.01563318	      0.00000000	     -5.61386566	    -10.31805377	      0.13472970	      9.67354416
